<?xml version="1.0" standalone="no"?>
<!DOCTYPE svg PUBLIC "-//W3C//DTD SVG 20010904//EN"
 "http://www.w3.org/TR/2001/REC-SVG-20010904/DTD/svg10.dtd">
<svg version="1.0" xmlns="http://www.w3.org/2000/svg"
 width="200.000000pt" height="200.000000pt" viewBox="0 0 200.000000 200.000000"
 preserveAspectRatio="xMidYMid meet">
<metadata>
Created by potrace 1.14, written by Peter Selinger 2001-2017
</metadata>
<g transform="translate(0.000000,200.000000) scale(0.100000,-0.100000)"
fill="#000000" stroke="none">
<path d="M734 1976 c-18 -14 -46 -48 -63 -74 -32 -50 -101 -202 -106 -231 -1
-9 -6 -16 -11 -15 -5 0 -44 -10 -88 -23 -85 -24 -133 -48 -149 -75 -26 -41 41
-91 158 -119 28 -6 53 -14 57 -18 3 -3 8 -33 11 -66 3 -33 9 -75 12 -92 l8
-33 -128 0 c-98 0 -126 -3 -122 -12 3 -7 26 -66 52 -131 38 -95 45 -120 35
-132 -7 -8 -17 -15 -23 -15 -22 0 -105 -99 -135 -161 -55 -114 -82 -252 -85
-429 -2 -168 47 -261 168 -321 l50 -24 625 0 625 0 48 24 c121 60 169 147 170
306 0 50 -3 110 -7 135 -3 25 -8 64 -11 87 -3 23 -9 53 -15 67 -5 15 -7 26 -5
26 7 0 -32 97 -63 159 -24 47 -123 151 -144 151 -4 0 5 30 19 68 26 68 72 195
73 200 0 1 -57 2 -126 2 l-126 0 6 28 c4 15 9 57 13 95 6 73 6 74 47 81 95 17
186 69 186 105 0 10 -8 25 -17 34 -17 14 -115 61 -138 66 -5 1 -27 4 -47 8
-44 7 -47 10 -77 88 -62 162 -134 256 -202 263 -14 2 -61 -13 -104 -33 -43
-20 -90 -37 -104 -37 -15 -1 -56 13 -91 31 -91 45 -136 49 -176 17z m147 -642
c90 -11 150 -10 249 1 109 13 201 10 211 -6 5 -8 0 -27 -14 -49 -12 -19 -20
-36 -19 -38 2 -1 -6 -22 -17 -45 -25 -51 -71 -77 -126 -72 -64 6 -88 22 -120
82 -35 67 -57 74 -79 28 -9 -18 -16 -37 -16 -42 0 -5 -13 -22 -30 -38 -25 -24
-38 -29 -84 -29 -80 0 -101 15 -145 108 -21 45 -36 86 -34 93 8 21 80 23 224
7z m-4 -481 c74 -31 157 -33 237 -4 32 11 67 28 77 37 11 10 21 15 23 13 4 -4
-44 -136 -162 -446 -26 -68 -50 -123 -54 -123 -4 0 -11 15 -17 33 -8 27 -63
173 -180 477 -26 68 -26 74 -2 53 11 -9 46 -27 78 -40z"/>
</g>
</svg>
